<?xml version="1.0" encoding="UTF-8" standalone="no"?>
<svg
   width="1024"
   height="1024"
   viewBox="0 0 1024 1024"
   version="1.1"
   id="svg2"
   sodipodi:docname="logo.svg"
   inkscape:version="1.4.2 (ebf0e940d0, 2025-05-08)"
   xmlns:inkscape="http://www.inkscape.org/namespaces/inkscape"
   xmlns:sodipodi="http://sodipodi.sourceforge.net/DTD/sodipodi-0.dtd"
   xmlns="http://www.w3.org/2000/svg"
   xmlns:svg="http://www.w3.org/2000/svg">
  <defs
     id="defs2" />
  <sodipodi:namedview
     id="namedview2"
     pagecolor="#ffffff"
     bordercolor="#000000"
     borderopacity="0.25"
     inkscape:showpageshadow="2"
     inkscape:pageopacity="0.0"
     inkscape:pagecheckerboard="0"
     inkscape:deskcolor="#d1d1d1"
     showguides="true"
     inkscape:zoom="0.26585558"
     inkscape:cx="30.091526"
     inkscape:cy="1034.3962"
     inkscape:window-width="1920"
     inkscape:window-height="1003"
     inkscape:window-x="0"
     inkscape:window-y="0"
     inkscape:window-maximized="1"
     inkscape:current-layer="svg2">
    <sodipodi:guide
       position="627.52717,816.49837"
       orientation="0.70710678,0.70710678"
       id="guide3"
       inkscape:locked="false"
       inkscape:label=""
       inkscape:color="rgb(0,134,229)" />
    <sodipodi:guide
       position="232.937,238.07751"
       orientation="0.70710678,0.70710678"
       id="guide4"
       inkscape:label=""
       inkscape:locked="false"
       inkscape:color="rgb(0,134,229)" />
  </sodipodi:namedview>
  <g
     id="g7"
     transform="matrix(1.1025,0,0,1.1025,-52.48,-52.48)">
    <circle
       style="fill:#ffffff;stroke-width:0.888673"
       id="path3"
       cx="512"
       cy="512"
       r="455" />
    <circle
       style="fill:#0b5397;fill-opacity:1;stroke-width:0.834961"
       id="circle3"
       cx="512"
       cy="512"
       r="427.5" />
    <path
       id="path4"
       style="fill:#032342;fill-opacity:1"
       d="m 627.52734,207.50195 -32.21209,32.15692 -44.43678,5.82683 -19.60493,5.51846 -33.42229,54.66356 0.82987,9.90652 -34.93404,42.79478 -214.5447,48.53172 -16.26488,379.02114 124.75781,124.75781 C 406.91045,929.72821 459.22713,939.49967 512,939.5 624.09661,939.49994 731.7084,895.47102 811.65667,816.8967 891.60494,738.32239 937.4925,631.48992 939.43555,519.41016 Z"
       sodipodi:nodetypes="cccccccccccscc" />
    <g
       id="g3"
       transform="matrix(0.6561,0,0,0.6561,159.52466,178.4664)"
       style="fill:#ffffff">
      <path
         d="m 673.131,31.5948 c 11.85,-1.2322 24.097,1.8177 34.272,7.9425 5.107,3.0735 9.379,7.6006 10.684,13.5594 4.209,19.2197 -31.479,54.3123 -42.176,70.5133 9.509,9.28 4.453,17.499 5.952,27.913 2.644,18.366 5.094,26.807 -8.898,41.304 -7.001,7.255 -17.675,18.806 -22.24,27.928 l -0.313,0.638 c 18.699,-4.321 38.325,-7.913 57.152,-12.214 10.621,-2.427 27.532,-6.537 37.635,-7.414 4.365,4.567 21.91,43.766 26.143,52.607 l 54.748,114.576 c 7.371,3.344 18.506,7.119 26.366,10.097 l 46.746,17.804 c 6.06,2.294 26.386,9.101 30.712,13.553 2.476,2.549 6.951,17.264 8.383,21.606 -6.755,6.702 -16.451,14.277 -23.727,20.645 -15.035,13.159 -30.833,26.051 -45.552,39.555 3.636,9.307 10.71,22.58 15.184,32.264 l 55.064,121.243 c 4.09,9.026 25.363,51.048 25.315,57.906 -0.868,1.758 -1.533,2.345 -3.448,2.852 -14.286,3.782 -29.046,7.268 -43.384,10.8 l -98.311,23.542 c -70.98,16.718 -142.858,35.352 -213.757,51.247 -18.468,4.062 -36.969,7.972 -55.501,11.729 -10.006,1.969 -27.861,4.113 -36.457,7.834 -7.263,3.144 -43.861,37.641 -52.908,45.737 -12.125,10.85 -24.59,21.391 -36.46,32.514 l -71.896,63.435 c -10.833,9.545 -21.426,19.434 -32.425,28.773 -1.065,0.815 -3.822,3.351 -5.106,3.306 -2.556,-0.088 -3.602,-8.045 -4.1,-9.978 -1.806,-7.009 -4.44,-14.179 -5.198,-21.366 -0.902,-8.559 -0.029,-17.433 0.184,-26.048 l 0.784,-42.249 -127.107,27.367 c -9.773,2.11 -61.686,14.421 -67.599,12.743 -2.275,-2.732 -2.027,-5.989 -1.992,-9.426 0.136,-13.283 1.259,-26.662 1.936,-39.942 l 2.279,-50.819 17.512,-383.929 c 0.401,-8.389 3.404,-90.991 5.056,-93.573 0.97,-1.517 4.772,-2.161 6.501,-2.61 26.136,-6.792 52.956,-11.71 79.325,-17.551 l 149.796,-33.401 c 30.447,-6.741 61.154,-12.887 91.378,-20.408 3.095,-4.135 7.055,-8.266 10.219,-12.384 13.331,-17.352 30.32,-35.311 43.026,-52.842 -5.224,-31.395 6.163,-40.854 23.921,-64.127 8.547,-11.202 15.961,-23.936 25.755,-34.288 13.984,-14.7797 30.426,-17.2542 49.169,-11.3051 4.324,-4.7112 8.812,-12.044 12.771,-17.3224 8.74,-11.6511 17.256,-23.5711 25.523,-35.5543 5.92,-8.5809 8.446,-12.4475 19.064,-14.7824 z M 582.579,340.92 c 19.622,8.287 42.673,16.399 62.784,23.972 l 72.136,27.553 c 10.614,3.95 63.344,21.884 68.298,26.199 0.116,1.543 -0.472,2.737 -1.554,3.789 -8.328,8.101 -17.926,16.205 -26.615,23.868 l -61.99,54.334 -222.927,195.197 -35.593,31.067 c -3.912,3.435 -21.334,19.52 -24.551,19.79 -3.229,-3.393 -4.345,-29.223 -4.939,-35.7 -1.531,-16.702 -2.465,-33.576 -4.951,-50.197 l -0.338,0.544 c -15.164,24.913 -10.422,36.959 -45.096,40.334 -7.028,17.703 -17.138,28.562 -32.176,40.032 -3.955,3.017 -11.724,11.251 -16.735,9.336 -1.284,-1.609 -1.59,-3.871 -1.181,-5.862 2.982,-14.547 7.358,-31.992 15.695,-44.313 4.043,-5.975 8.414,-10.08 11.621,-16.501 3.458,-6.924 0.655,-15.384 3.071,-21.352 4.501,-11.119 11.871,-20.49 17.147,-31.603 -20.524,-7.96 -41.141,-15.679 -61.847,-23.154 -6.608,-2.326 -15.136,-5.718 -21.659,-7.528 -14.616,16.901 -15.223,23.239 -36.624,29.635 -12.84,21.309 -23.655,37.656 -48.228,48.174 -1.625,28.229 -1.979,60.013 -2.532,88.455 l -1.988,85.961 c 23.536,-5.423 48.769,-10.087 72.579,-15.054 l 35.306,-7.292 c 6.694,-1.372 21.915,-5.265 28.064,-3.998 0.698,1.991 0.575,5.608 0.503,7.753 -1.232,36.894 -4.912,74.261 -4.251,111.193 11.253,-9.803 23.253,-20.811 34.785,-30.056 -5.171,-4.105 -21.212,-15.771 -20.853,-22.496 4.927,-4.846 23.196,13.3 27.173,16.979 7.353,-6.253 19.269,-15.771 25.824,-22.158 -4.998,-3.716 -29.997,-20.504 -27.113,-27.026 0.85,-0.525 2.212,-1.491 3.295,-1.04 9.875,4.106 22.361,16.785 30.759,23.243 7.797,-7.965 18.471,-15.62 25.186,-22.764 -4.86,-3.831 -23.005,-16.172 -21.783,-23.031 5.833,-4.657 24.271,13.863 27.975,17.683 5.542,-4.535 13.589,-11.975 18.96,-15.816 l 7.025,-5.922 c -6.353,-4.443 -23.049,-15.532 -24.695,-22.541 0.383,-1.706 -0.021,-0.968 1.404,-2.199 7.089,-2.122 23.613,14.361 28.743,19.001 7.862,-7.082 15.777,-14.104 23.746,-21.065 -4.708,-3.291 -27.713,-19.793 -23.037,-25.649 1.625,-0.54 2.369,-0.884 4.129,0.151 8.852,5.204 17.205,13.604 25.391,19.975 8.623,-8.264 19.635,-16.309 27.642,-24.603 -5.052,-3.98 -10.564,-8.033 -15.379,-12.286 -2.563,-2.264 -4.74,-4.979 -2.332,-8.206 5.745,-2.469 20.025,11.04 24.303,14.811 7.112,-6.583 16.68,-14.662 23.306,-21.229 -1.595,-1.192 -43.195,-26.677 -29.69,-28.82 6.06,-0.962 30.805,17.802 36.79,22.182 4.621,-3.759 21.02,-17.179 24.645,-21.276 -5.313,-3.35 -20.038,-11.644 -21.798,-17.279 0.178,-0.842 0.03,-1.234 0.751,-1.667 6.22,-3.73 13.743,2.894 18.434,6.227 3.491,2.481 6.346,4.803 9.443,7.162 8.099,-6.79 16.007,-14.14 23.875,-21.225 -4.852,-3.125 -29.122,-16.451 -24.335,-22.295 5.106,-1.628 24.906,13.828 29.847,17.395 7.016,-5.821 18.771,-15.842 24.916,-22.426 -5.481,-3.736 -19.324,-11.993 -21.133,-17.946 l 0.261,-0.886 c 5.464,-2.495 21.497,10.343 26.329,13.872 8.5,-7.593 18.494,-15.637 26.321,-23.675 -4.879,-2.955 -20.871,-11.863 -20.377,-17.854 4.613,-5.05 21.418,10.175 25.233,13.767 8.123,-7.022 15.715,-13.863 23.692,-21.034 -6.186,-3.808 -37.775,-21.861 -34.979,-29.889 0.967,-0.897 2.858,-2.077 3.874,-1.676 10.346,4.094 29.454,18.999 37.365,25.633 8.255,-6.924 16.148,-13.454 24.051,-20.779 -5.256,-3.561 -23.28,-14.172 -23.041,-20.649 5.194,-5.261 24.42,12.177 28.531,15.808 7.988,-6.617 16.504,-13.467 24.23,-20.352 -5.991,-3.405 -26.914,-14.576 -25.586,-21.795 0.626,-0.949 1.836,-2.217 2.89,-2.127 7.586,0.653 23.299,14.215 28.284,18.128 7.977,-6.416 15.737,-13.097 23.269,-20.031 -7.992,-4.614 -16.124,-9.556 -22.99,-15.851 -4.651,-4.264 -2.841,-9.322 3.808,-7.965 9.027,4.146 17.461,12.169 25.932,17.808 5.984,-5.152 16.981,-14.137 21.96,-19.588 -6.168,-4.029 -12.705,-7.96 -18.254,-12.817 -2.218,-1.942 -4.522,-3.992 -3.204,-7.233 5.588,-3.265 22.129,11.779 26.528,15.809 3.448,-3.11 18.391,-16.092 20.65,-18.936 -5.121,-6.238 -28.601,-16.349 -28.171,-24.257 0.745,-13.716 35.022,15.865 36.973,17.471 7.361,-6.154 16.293,-13.414 23.295,-19.85 -5.726,-3.622 -22.028,-12.716 -22.26,-19.488 4.249,-5.831 23.821,10.721 27.688,14.283 7.181,-5.841 14.222,-11.852 21.118,-18.028 -9.466,-6.49 -19.467,-13.275 -28.121,-20.863 -2.387,-2.093 -5.175,-5.231 -2.998,-8.491 7.086,-4.095 32.534,17.706 38.364,22.854 L 921.957,411.94 C 895.98,401.495 868.619,392.07 842.305,382.141 L 707.109,331.014 637.306,305.069 c -7.284,-2.626 -25.187,-9.37 -31.908,-10.977 -7.358,15.729 -14.965,31.341 -22.819,46.828 z m -437.228,30.132 c -1.45,12.497 -1.906,26.641 -2.552,39.328 l -3.055,65.571 c -3.036,59.34 -5.756,118.694 -8.163,178.063 l -7.909,179.497 -2.326,48.549 c -0.561,10.939 -1.386,22.988 -1.36,33.874 11.724,-2.362 23.551,-4.869 35.226,-7.453 34.805,-7.704 69.949,-14.545 104.678,-22.552 14.713,-3.224 33.217,-7.81 47.753,-10.174 0.307,-11.816 1.26,-24.743 1.431,-36.183 -39.34,8.655 -78.998,15.912 -118.218,25.175 -4.426,1.046 -12.73,2.992 -17.067,2.627 -3.248,-5.147 -1.953,-23.566 -1.793,-30.447 l 1.359,-48.062 8.462,-313.329 c 0.834,-27.367 1.383,-54.805 1.704,-82.182 0.037,-3.121 0.191,-9.388 2.048,-11.804 4.953,-2.625 16.005,-4.435 21.83,-5.702 l 24.262,-5.468 123.319,-27.713 c 18.688,-4.11 47.415,-9.202 64.786,-14.558 3.255,-3.823 16.397,-19.014 17.921,-22.524 l -0.209,-0.416 -188.799,42.701 -65.125,14.763 c -12.334,2.795 -25.839,6.118 -38.203,8.419 z m 366.262,105.401 c -10.452,19.536 -21.933,38.757 -32.173,58.167 5.528,24.152 11.418,48.22 17.668,72.196 3.006,-0.326 9.683,-2.153 12.784,-2.925 l 23.762,-5.944 c 17.503,-4.304 35.093,-8.26 52.587,-12.583 1.762,-0.435 5.851,-1.789 7.219,-2.743 9.634,-6.717 18.648,-15.995 27.459,-23.702 l 65.531,-57.665 c 12.345,-10.985 27.562,-25.539 40.338,-35.183 -2.303,-5.256 -14.22,-32.68 -16.457,-34.945 l -129.097,29.551 -43.476,9.643 c -7.533,1.658 -18.997,3.875 -26.145,6.133 z m -67.318,-86.02 c -5.446,5.28 -9.91,11.07 -14.697,16.919 -23.813,29.094 -47.797,58.036 -71.445,87.268 -1.994,2.465 -4.072,5.023 -5.674,7.762 3.482,-0.713 7.895,-1.744 11.342,-2.235 21.771,-5.158 43.83,-9.374 65.608,-14.528 3.251,-0.769 6.559,-1.6 9.845,-2.188 4.462,-7.601 13.71,-22.896 17.069,-30.75 -1.338,-8.319 -9.24,-57.939 -12.048,-62.248 z m 263.673,30.976 c -6.106,-3.542 -18.132,-7.639 -25.178,-10.238 -11.375,-4.158 -22.707,-8.431 -33.996,-12.819 l -56.749,-21.819 c -4.162,-1.562 -19.351,-7.536 -22.575,-8.265 -16.418,32.429 -34.485,64.423 -51.365,96.651 13.409,-3.791 29.386,-6.599 43.138,-9.707 23.261,-5.501 46.577,-10.769 69.944,-15.801 l 45.532,-10.315 c 10.378,-2.363 21.092,-4.577 31.249,-7.687 z m 37.228,-83.839 c -3.833,-8.762 -33.401,-71.496 -37.367,-74.91 l -0.801,-0.047 c -17.688,4.266 -35.424,8.333 -53.204,12.197 -11.496,2.521 -35.865,6.642 -45.29,11.539 6.883,4.113 18.776,8.006 26.563,10.876 l 39.451,14.558 c 22.67,8.364 47.848,18.196 70.648,25.787 z M 634.284,247.64 c -2.691,4.274 -13.652,21.102 -16.74,24.382 l 0.173,0.508 c 2.264,-0.17 18.367,-3.794 21.544,-4.488 14.681,-3.202 29.346,-6.481 43.993,-9.837 9.205,-2.097 21.786,-5.309 30.836,-6.233 5.503,6.991 11.246,20.059 15.201,28.403 9.441,19.126 22.583,44.465 30.557,63.876 6.706,2.338 13.397,4.718 20.073,7.142 -6.36,-11.81 -12.733,-25.752 -18.492,-37.929 -7.924,-16.992 -15.972,-33.927 -24.143,-50.802 -3.646,-7.685 -11.757,-26.918 -15.953,-32.829 -0.754,-0.206 -0.788,-0.323 -1.5,-0.245 -21.049,4.681 -42.129,9.23 -63.196,13.829 -7.373,1.61 -15.009,2.695 -22.353,4.223 z m 8.358,-15.197 -4.482,8.426 c 12.326,-2.004 80.575,-18.593 87.049,-17.455 4.853,4.855 31.442,64.753 35.821,74.163 l 26.838,56.552 c 7.91,3.241 15.859,6.388 23.845,9.44 -5.789,-13.313 -70.434,-150.233 -72.334,-151.499 l -0.811,0.033 c -31.628,7.306 -64.133,13.242 -95.926,20.34 z M 449.998,287.67 c -23.05,4.785 -46.406,10.369 -69.431,15.453 l -133.659,29.552 -70.07,15.566 -18.69,4.247 c -6.886,1.541 -14.33,1.54 -12.682,11.356 l 0.775,0.875 0.909,0.014 c 20.529,-5.503 43.678,-10.111 64.593,-14.94 l 159.902,-35.973 49.184,-11.227 c 7.749,-1.803 17.357,-3.793 24.878,-5.899 1.92,-2.464 4.547,-5.593 5.94,-8.284 l -0.16,-0.837 z m 3.754,90.576 10.331,58.971 c 1.282,-2.287 2.622,-4.6 3.802,-6.936 15.223,-28.993 31.454,-59.647 45.833,-89.026 -6.261,-2.81 -13.999,-6.166 -20.558,-8.242 -14.257,14.256 -25.969,30.471 -39.408,45.233 z M 209.14,552.874 c 8.192,-12.989 28.794,-41.521 42.817,-46.667 4.118,0.719 7.451,1.497 11.517,2.512 4.355,-1.561 6.304,-1.682 10.859,-2.368 6.871,-8.899 14.768,-18.128 21.89,-27.082 25.525,-32.09 51.277,-63.997 77.256,-95.719 l 20.277,-24.89 c 2.917,-3.539 12.192,-13.46 13.65,-17.102 l -0.368,-0.405 -147.828,32.855 -41.707,9.326 c -6.571,1.412 -17.518,3.265 -23.454,4.935 -1.052,25.483 -1.807,50.978 -2.265,76.48 l -3.529,123.934 -1.183,42.199 c -0.18,8.303 -0.062,17.509 -0.697,25.695 1.427,-3.877 3.39,-9.388 5.356,-13.032 4.657,-10.157 12.85,-17.625 19.243,-26.517 0.518,-33.277 -4.564,-21.163 13.185,-47.267 -9.164,-4.746 -11.447,-6.642 -15.019,-16.887 z m 289.914,63.24 c 1.897,10.896 5.341,22.34 8.401,33.007 l 2.047,7.451 45.62,-39.901 c 3.102,-2.734 17.308,-14.926 18.716,-17.236 l -0.453,-0.433 -0.916,0.106 c -24.424,5.872 -48.896,11.541 -73.415,17.006 z m 210.06,19.161 c -21.2,18.158 -41.524,37.642 -62.646,56.186 l -29.959,25.99 c -5.907,5.16 -12.606,10.753 -17.961,16.403 8.14,-1.484 16.054,-3.716 24.068,-5.266 27.408,-6.427 54.748,-13.144 82.014,-20.15 10.113,-2.499 23.575,-5.039 33.108,-7.732 -3.088,-7.928 -24.793,-63.8 -28.384,-65.367 -0.076,-0.034 -0.16,-0.043 -0.24,-0.064 z m 56.372,-51.389 c 4.48,-0.938 8.945,-1.947 13.393,-3.024 17.033,-4.55 35.887,-8.02 52.176,-12.596 -2.9,-7.484 -10.04,-23.54 -14.31,-30.312 -15.858,14.04 -36.498,31.404 -51.259,45.932 z m 153.179,103.096 c -3.388,-8.129 -7.788,-16.906 -11.566,-24.95 -6.21,-13.249 -12.35,-26.531 -18.419,-39.845 -5.802,-12.722 -44.798,-102.216 -48.217,-104.71 -5.171,3.591 -9.508,7.554 -14.064,11.891 12.564,24.824 24.988,53.735 36.213,79.417 8.872,20.297 20.631,44.556 28.584,64.932 -39.585,9.22 -79.59,19.324 -119.094,29.002 l -115.864,28.239 c -14.334,3.561 -28.732,6.863 -43.185,9.904 -4.938,1.049 -25.056,5.032 -28.272,6.713 -7.184,3.756 -23.404,19.174 -29.671,25.055 4.491,-1.033 8.747,-1.747 13.279,-2.521 14.084,-2.85 28.427,-5.387 42.421,-8.532 31.174,-7.006 62.159,-15.075 93.266,-22.426 z M 445.85,596.128 c 3.678,3.509 6.154,5.852 6.387,11.407 0.119,2.838 -0.609,5.089 0.314,7.709 2.113,1.92 3.255,1.128 5.941,0.582 l 0.703,-0.138 0.421,-0.088 c 9.053,-2.159 18.398,-4.516 27.482,-6.423 -1.828,-7.129 -13.29,-56.86 -15.417,-58.925 -4.361,6.467 -9.042,15.624 -13.043,22.535 -3.669,6.339 -10.108,16.709 -12.788,23.341 z m -25.41,42.238 c 8.164,-1.764 13.96,-14.988 18.277,-21.526 2.116,-3.205 5.085,-8.472 4.783,-12.33 -1.964,-4.147 -7.486,-4.04 -11.542,-4.552 -7.131,11.043 -17.676,27.801 -23.068,39.595 4.277,-0.085 7.328,-0.224 11.55,-1.187 z m 94.523,-329.782 c 1.228,0.294 4.533,1.17 5.613,1.242 2.791,0.794 5.448,1.587 8.292,2.191 6.911,-11.477 18.061,-30.101 22.661,-43.223 0.321,-0.915 -2.178,-1.017 -2.821,-1.006 -5.89,4.733 -28.562,33.579 -33.745,40.796 z m 205.658,118.69 c 2.896,8.462 10.018,22.343 14.09,31.034 l 11.121,-9.782 c 3.539,-3.144 7.058,-6.31 10.558,-9.498 -9.38,-3.001 -27.42,-11.219 -35.769,-11.754 z M 951.642,697.628 887.86,557.904 c -5.053,-10.962 -9.969,-21.986 -14.747,-33.071 -2.479,-5.753 -8.525,-20.303 -11.688,-25.226 -4.73,3.356 -10.905,8.787 -15.429,12.627 9.774,19.098 18.767,39.308 27.367,59.016 17.644,40.437 37.547,80.284 55.034,120.727 -26.809,5.396 -56.976,13.605 -84.069,19.956 -67.368,15.525 -134.633,31.498 -201.788,47.918 -20.93,4.917 -41.953,9.43 -63.057,13.534 -9.52,1.825 -22.723,3.539 -31.668,6.086 -3.701,1.054 -17.516,14.617 -20.704,18.027 2.677,-0.569 5.346,-1.173 8.008,-1.81 45.059,-8.281 90.626,-19.472 135.2,-29.996 l 223.845,-53.827 c 18.454,-4.387 39.387,-10.303 57.478,-14.237 z m -633.76,35.588 6.469,-5.705 c 8.291,-7.709 18.778,-16.932 25.51,-25.696 -5.421,-3.151 -7.729,-4.617 -12.203,-8.934 -9.955,13.067 -15.269,24.702 -19.776,40.335 z m -127.474,-69.75 c 2.78,-2.021 4.706,-3.526 7.3,-5.774 8.035,-6.411 23.282,-20.465 28.196,-29.047 -3.843,-1.669 -7.719,-3.26 -11.625,-4.773 -4.329,6.024 -9.069,11.397 -13.267,17.549 -4.947,7.249 -7.414,13.977 -10.604,22.045 z m 685.566,3.169 c -4.706,-10.966 -37.71,-86.488 -40.5,-88.54 -17.96,4.472 -35.948,8.831 -53.963,13.075 -6.251,1.492 -29.886,6.408 -33.75,9.225 -7.432,5.419 -21.655,18.846 -28.799,25.589 3.59,10.67 10.437,24.867 14.774,35.705 4.328,10.817 9.664,25.623 14.651,35.795 3.091,-0.757 6.351,-1.617 9.441,-2.299 l 66.111,-15.798 c 16.571,-4.135 35.43,-9.37 52.035,-12.752 z M 220.777,549.59 c 2.015,0.612 4.26,1.365 6.306,1.757 1.902,0.352 3.704,0.887 5.54,0.395 3.148,-3.304 23.695,-32.314 24.763,-35.16 -0.702,-3.75 -2.52,-3.989 -5.975,-4.588 -7.891,4.535 -26.711,29.04 -30.634,37.596 z m 95.251,-1.27 c 6.597,2.756 12.854,5.015 19.592,7.428 16.299,5.934 37.641,13 53.405,19.384 4.754,-8.777 44.028,-77.057 43.419,-80.442 -25.354,4.842 -50.564,10.908 -75.861,16.059 -4.141,0.844 -8.555,1.771 -12.632,2.875 -6.016,6.588 -23.662,27.405 -27.923,34.696 z m 133.027,79.597 c -13.023,20.087 -12.498,34.766 -40.715,36.158 1.987,24.826 4.427,49.613 7.321,74.35 l 4.108,-3.964 81.038,-70.568 c -1.879,-5.75 -10.661,-43.297 -12.802,-44.544 l -1.712,0.262 z m 71.036,-411.03 -129.129,157.837 c -34.993,42.236 -69.664,84.736 -104.012,127.499 -14.263,18.029 -28.852,36.03 -42.987,54.176 -7.256,9.315 -20.764,23.244 -26.444,32.811 -0.313,7.939 1.059,14.742 11.124,15.145 5.547,0.222 13.147,-2.855 16.827,-6.874 10.66,-11.866 20.524,-25.051 30.389,-37.583 l 52.827,-66.714 c 49.686,-61.623 99.866,-122.847 150.534,-183.666 19.152,-23.082 38.357,-48.673 57.912,-71.031 1.458,-1.831 2.935,-3.646 4.431,-5.447 -3.091,-1.637 -6.24,-3.161 -9.441,-4.57 -9.889,11.141 -20.267,24.356 -29.694,35.996 l -46.211,56.75 C 404.174,383.531 352.712,446.329 301.838,509.602 l -44.937,56.35 c -6.247,7.84 -12.533,15.711 -18.689,23.635 -1.53,1.97 -4.888,4.843 -7.49,5.2 l -1.168,-0.501 c -1.615,-4.119 4.906,-10.339 7.476,-13.498 5.498,-6.758 11.071,-13.493 16.627,-20.206 9.695,-11.849 19.281,-23.786 28.757,-35.811 53.553,-67.095 107.669,-133.739 162.341,-199.926 l 53.459,-65.13 c 8.418,-10.249 20.176,-23.712 27.839,-34.065 -1.224,-1.861 -4.697,-7.374 -5.962,-8.763 z m 52.516,26.877 c -14.125,29.691 -29.754,57.371 -44.645,86.632 -55.597,110.939 -115.527,219.653 -179.651,325.891 -2.016,3.354 -5.424,9.043 -3.831,12.923 4.877,11.883 24.899,10.385 31.401,0.824 6.938,-10.456 12.836,-21.86 18.898,-32.851 10.924,-19.891 21.954,-39.722 33.092,-59.494 38.398,-67.843 75.415,-136.458 111.029,-205.803 19.218,-37.22 39.842,-75.995 57.325,-114.013 1.062,-2.445 2.931,-6.448 3.629,-8.841 l -11.403,-0.27 c -6.83,16.834 -17.892,37.199 -26.32,53.755 l -53.035,102.187 c -31.877,62.274 -65.232,123.779 -100.037,184.465 -9.877,17.358 -19.967,34.594 -30.267,51.704 -3.548,6.028 -13.724,25.978 -19.014,28.262 -1.798,-0.236 -1.133,0.174 -2.188,-1.044 -0.124,-1.724 0.192,-3.041 1.071,-4.562 6.817,-11.803 13.996,-23.581 20.787,-35.383 l 47.156,-82.967 C 463.523,479.012 499.056,412.08 533.177,344.428 l 30.194,-58.966 c 6.384,-12.47 13.325,-25.08 18.727,-37.975 -3.576,-1.232 -6.038,-2.186 -9.491,-3.723 z m 23.878,-141.616 c -21.497,3.761 -29.538,19.438 -41.503,35.585 -10.864,14.661 -23.298,28.75 -32.107,44.749 -3.976,8.847 0.737,16.559 8.334,20.762 13.013,7.2 27.315,11.501 41.069,16.87 10.351,4.039 17.509,4.52 28.431,4.693 10.748,-0.921 20.148,-4.59 26.402,-13.62 15.273,-22.053 34.48,-43.783 48.945,-66.12 -0.3,-3.75 -0.453,-11.558 -4.099,-13.921 -15.265,-9.896 -33.444,-16.06 -50.209,-23.125 -7.782,-3.28 -16.753,-6.427 -25.263,-5.873 z"
         id="path1"
         style="fill:#ffffff" />
      <path
         d="m 594.156,111.097 c 12.688,-1.587 32.182,9.013 43.995,13.878 7.229,2.977 24.908,7.004 28.282,13.121 -0.092,8.146 -24.054,36.214 -29.736,44.22 -6.54,9.216 -15.677,20.714 -23.246,29.322 -1.552,1.765 -6.571,3.164 -8.991,3.821 -14.557,3.407 -32.633,-5.018 -45.902,-10.296 -7.852,-3.123 -24.352,-5.641 -26.847,-14.795 -0.917,-3.364 1.724,-9.069 3.828,-11.974 12.337,-17.034 25.485,-33.602 37.829,-50.657 6.63,-9.069 9.459,-14.048 20.788,-16.64 z m 9.191,59.317 c 12.732,-5.846 2.63,-13.614 -5.621,-12.897 -12.615,5.053 -4.364,13.632 5.621,12.897 z"
         id="path2"
         style="fill:#ffffff" />
    </g>
  </g>
</svg>
